<mxfile host="app.diagrams.net" agent="Mozilla/5.0 (Windows NT 10.0; Win64; x64) AppleWebKit/537.36 (KHTML, like Gecko) Chrome/136.0.0.0 Safari/537.36" version="27.0.1">
  <diagram name="Page-1" id="akPKtcCnbVNq-6WgY15D">
    <mxGraphModel dx="2022" dy="2135" grid="1" gridSize="10" guides="1" tooltips="1" connect="1" arrows="1" fold="1" page="1" pageScale="1" pageWidth="827" pageHeight="1169" math="0" shadow="0">
      <root>
        <mxCell id="0" />
        <mxCell id="1" parent="0" />
        <mxCell id="lY7hRPInTB1ZuiQXHe0n-1" value="Garda" style="swimlane;fontStyle=1;align=center;verticalAlign=top;childLayout=stackLayout;horizontal=1;startSize=26;horizontalStack=0;resizeParent=1;resizeParentMax=0;resizeLast=0;collapsible=1;marginBottom=0;whiteSpace=wrap;html=1;" vertex="1" parent="1">
          <mxGeometry x="180" y="30" width="240" height="170" as="geometry" />
        </mxCell>
        <mxCell id="lY7hRPInTB1ZuiQXHe0n-2" value="&lt;div&gt;- name: String&lt;/div&gt;&lt;div&gt;- manager: Manager&lt;/div&gt;&lt;div&gt;- department: Department&lt;/div&gt;" style="text;strokeColor=none;fillColor=none;align=left;verticalAlign=top;spacingLeft=4;spacingRight=4;overflow=hidden;rotatable=0;points=[[0,0.5],[1,0.5]];portConstraint=eastwest;whiteSpace=wrap;html=1;" vertex="1" parent="lY7hRPInTB1ZuiQXHe0n-1">
          <mxGeometry y="26" width="240" height="64" as="geometry" />
        </mxCell>
        <mxCell id="lY7hRPInTB1ZuiQXHe0n-3" value="" style="line;strokeWidth=1;fillColor=none;align=left;verticalAlign=middle;spacingTop=-1;spacingLeft=3;spacingRight=3;rotatable=0;labelPosition=right;points=[];portConstraint=eastwest;strokeColor=inherit;" vertex="1" parent="lY7hRPInTB1ZuiQXHe0n-1">
          <mxGeometry y="90" width="240" height="8" as="geometry" />
        </mxCell>
        <mxCell id="lY7hRPInTB1ZuiQXHe0n-4" value="+ toString(): String&lt;div&gt;+ getName(): String&lt;/div&gt;&lt;div&gt;+ getManagerType(): Manager&lt;/div&gt;&lt;div&gt;+&amp;nbsp;getDepartment(): Department&lt;/div&gt;" style="text;strokeColor=none;fillColor=none;align=left;verticalAlign=top;spacingLeft=4;spacingRight=4;overflow=hidden;rotatable=0;points=[[0,0.5],[1,0.5]];portConstraint=eastwest;whiteSpace=wrap;html=1;" vertex="1" parent="lY7hRPInTB1ZuiQXHe0n-1">
          <mxGeometry y="98" width="240" height="72" as="geometry" />
        </mxCell>
        <mxCell id="lY7hRPInTB1ZuiQXHe0n-5" value="&lt;code data-end=&quot;953&quot; data-start=&quot;931&quot;&gt;&lt;font style=&quot;font-size: 14px;&quot;&gt;&amp;lt;&amp;lt;abstract&amp;gt;&amp;gt;&lt;/font&gt;&lt;/code&gt;&lt;div&gt;&lt;font style=&quot;font-size: 14px;&quot;&gt;&lt;code data-end=&quot;953&quot; data-start=&quot;931&quot;&gt;Manager&lt;/code&gt;&lt;br&gt;&lt;/font&gt;&lt;div&gt;&lt;br&gt;&lt;/div&gt;&lt;/div&gt;" style="swimlane;fontStyle=1;align=center;verticalAlign=top;childLayout=stackLayout;horizontal=1;startSize=50;horizontalStack=0;resizeParent=1;resizeParentMax=0;resizeLast=0;collapsible=1;marginBottom=0;whiteSpace=wrap;html=1;" vertex="1" parent="1">
          <mxGeometry x="40" y="260" width="210" height="140" as="geometry" />
        </mxCell>
        <mxCell id="lY7hRPInTB1ZuiQXHe0n-6" value="#&amp;nbsp;title: String&lt;div&gt;- manager: String (title)&lt;/div&gt;" style="text;strokeColor=none;fillColor=none;align=left;verticalAlign=top;spacingLeft=4;spacingRight=4;overflow=hidden;rotatable=0;points=[[0,0.5],[1,0.5]];portConstraint=eastwest;whiteSpace=wrap;html=1;" vertex="1" parent="lY7hRPInTB1ZuiQXHe0n-5">
          <mxGeometry y="50" width="210" height="50" as="geometry" />
        </mxCell>
        <mxCell id="lY7hRPInTB1ZuiQXHe0n-7" value="" style="line;strokeWidth=1;fillColor=none;align=left;verticalAlign=middle;spacingTop=-1;spacingLeft=3;spacingRight=3;rotatable=0;labelPosition=right;points=[];portConstraint=eastwest;strokeColor=inherit;" vertex="1" parent="lY7hRPInTB1ZuiQXHe0n-5">
          <mxGeometry y="100" width="210" height="8" as="geometry" />
        </mxCell>
        <mxCell id="lY7hRPInTB1ZuiQXHe0n-8" value="+&amp;nbsp;getTitle(): String&lt;div&gt;&lt;br&gt;&lt;/div&gt;" style="text;strokeColor=none;fillColor=none;align=left;verticalAlign=top;spacingLeft=4;spacingRight=4;overflow=hidden;rotatable=0;points=[[0,0.5],[1,0.5]];portConstraint=eastwest;whiteSpace=wrap;html=1;" vertex="1" parent="lY7hRPInTB1ZuiQXHe0n-5">
          <mxGeometry y="108" width="210" height="32" as="geometry" />
        </mxCell>
        <mxCell id="lY7hRPInTB1ZuiQXHe0n-13" value="&lt;div&gt;&lt;div&gt;&lt;font style=&quot;font-size: 14px;&quot;&gt;&amp;lt;&amp;lt;abstract&amp;gt;&amp;gt;&lt;/font&gt;&lt;/div&gt;&lt;div&gt;&lt;font style=&quot;font-size: 14px;&quot;&gt;Department&lt;/font&gt;&lt;/div&gt;&lt;/div&gt;" style="swimlane;fontStyle=1;align=center;verticalAlign=top;childLayout=stackLayout;horizontal=1;startSize=50;horizontalStack=0;resizeParent=1;resizeParentMax=0;resizeLast=0;collapsible=1;marginBottom=0;whiteSpace=wrap;html=1;" vertex="1" parent="1">
          <mxGeometry x="320" y="260" width="210" height="140" as="geometry" />
        </mxCell>
        <mxCell id="lY7hRPInTB1ZuiQXHe0n-14" value="# name: String&lt;div&gt;- department: String (name)&lt;/div&gt;" style="text;strokeColor=none;fillColor=none;align=left;verticalAlign=top;spacingLeft=4;spacingRight=4;overflow=hidden;rotatable=0;points=[[0,0.5],[1,0.5]];portConstraint=eastwest;whiteSpace=wrap;html=1;" vertex="1" parent="lY7hRPInTB1ZuiQXHe0n-13">
          <mxGeometry y="50" width="210" height="50" as="geometry" />
        </mxCell>
        <mxCell id="lY7hRPInTB1ZuiQXHe0n-15" value="" style="line;strokeWidth=1;fillColor=none;align=left;verticalAlign=middle;spacingTop=-1;spacingLeft=3;spacingRight=3;rotatable=0;labelPosition=right;points=[];portConstraint=eastwest;strokeColor=inherit;" vertex="1" parent="lY7hRPInTB1ZuiQXHe0n-13">
          <mxGeometry y="100" width="210" height="8" as="geometry" />
        </mxCell>
        <mxCell id="lY7hRPInTB1ZuiQXHe0n-16" value="+&amp;nbsp;getName(): String&lt;div&gt;&lt;br&gt;&lt;/div&gt;" style="text;strokeColor=none;fillColor=none;align=left;verticalAlign=top;spacingLeft=4;spacingRight=4;overflow=hidden;rotatable=0;points=[[0,0.5],[1,0.5]];portConstraint=eastwest;whiteSpace=wrap;html=1;" vertex="1" parent="lY7hRPInTB1ZuiQXHe0n-13">
          <mxGeometry y="108" width="210" height="32" as="geometry" />
        </mxCell>
        <mxCell id="lY7hRPInTB1ZuiQXHe0n-18" value="&lt;p style=&quot;margin:0px;margin-top:4px;text-align:center;&quot;&gt;&lt;b&gt;GardaCommissioner&lt;/b&gt;&lt;/p&gt;&lt;hr size=&quot;1&quot; style=&quot;border-style:solid;&quot;&gt;&lt;div style=&quot;height:2px;&quot;&gt;+&amp;nbsp;GardaCommissioner()&lt;/div&gt;" style="verticalAlign=top;align=left;overflow=fill;html=1;whiteSpace=wrap;" vertex="1" parent="1">
          <mxGeometry x="60" y="430" width="170" height="60" as="geometry" />
        </mxCell>
        <mxCell id="lY7hRPInTB1ZuiQXHe0n-19" value="&lt;p style=&quot;margin:0px;margin-top:4px;text-align:center;&quot;&gt;&lt;b&gt;DeputyCommissioner&lt;/b&gt;&lt;/p&gt;&lt;hr size=&quot;1&quot; style=&quot;border-style:solid;&quot;&gt;&lt;div style=&quot;height:2px;&quot;&gt;+ DeputyCommissioner()&lt;/div&gt;" style="verticalAlign=top;align=left;overflow=fill;html=1;whiteSpace=wrap;" vertex="1" parent="1">
          <mxGeometry x="60" y="520" width="170" height="60" as="geometry" />
        </mxCell>
        <mxCell id="lY7hRPInTB1ZuiQXHe0n-20" value="&lt;p style=&quot;margin:0px;margin-top:4px;text-align:center;&quot;&gt;&lt;b&gt;Superintendent&lt;/b&gt;&lt;/p&gt;&lt;hr size=&quot;1&quot; style=&quot;border-style:solid;&quot;&gt;&lt;div style=&quot;height:2px;&quot;&gt;+&amp;nbsp;Superintendent()&lt;/div&gt;" style="verticalAlign=top;align=left;overflow=fill;html=1;whiteSpace=wrap;" vertex="1" parent="1">
          <mxGeometry x="60" y="610" width="170" height="60" as="geometry" />
        </mxCell>
        <mxCell id="lY7hRPInTB1ZuiQXHe0n-21" value="&lt;p style=&quot;margin:0px;margin-top:4px;text-align:center;&quot;&gt;&lt;b&gt;Inspector&lt;/b&gt;&lt;/p&gt;&lt;hr size=&quot;1&quot; style=&quot;border-style:solid;&quot;&gt;&lt;div style=&quot;height:2px;&quot;&gt;+&amp;nbsp;Inspector()&lt;/div&gt;" style="verticalAlign=top;align=left;overflow=fill;html=1;whiteSpace=wrap;" vertex="1" parent="1">
          <mxGeometry x="60" y="700" width="170" height="60" as="geometry" />
        </mxCell>
        <mxCell id="lY7hRPInTB1ZuiQXHe0n-22" value="&lt;p style=&quot;margin:0px;margin-top:4px;text-align:center;&quot;&gt;&lt;b&gt;Sergeant&lt;/b&gt;&lt;/p&gt;&lt;hr size=&quot;1&quot; style=&quot;border-style:solid;&quot;&gt;&lt;div style=&quot;height:2px;&quot;&gt;+&amp;nbsp;Sergeant()&lt;/div&gt;" style="verticalAlign=top;align=left;overflow=fill;html=1;whiteSpace=wrap;" vertex="1" parent="1">
          <mxGeometry x="60" y="790" width="170" height="60" as="geometry" />
        </mxCell>
        <mxCell id="lY7hRPInTB1ZuiQXHe0n-23" value="&lt;p style=&quot;margin:0px;margin-top:4px;text-align:center;&quot;&gt;&lt;b&gt;NationalImmigrationBureau&lt;/b&gt;&lt;/p&gt;&lt;hr size=&quot;1&quot; style=&quot;border-style:solid;&quot;&gt;&lt;div style=&quot;height:2px;&quot;&gt;+&amp;nbsp;NationalImmigrationBureau()&lt;/div&gt;" style="verticalAlign=top;align=left;overflow=fill;html=1;whiteSpace=wrap;" vertex="1" parent="1">
          <mxGeometry x="330.5" y="780" width="189" height="60" as="geometry" />
        </mxCell>
        <mxCell id="lY7hRPInTB1ZuiQXHe0n-24" value="&lt;p style=&quot;margin:0px;margin-top:4px;text-align:center;&quot;&gt;&lt;b&gt;DrugsOrganisedCrimeBureau&lt;/b&gt;&lt;/p&gt;&lt;hr size=&quot;1&quot; style=&quot;border-style:solid;&quot;&gt;&lt;div style=&quot;height:2px;&quot;&gt;+&amp;nbsp;DrugsOrganisedCrimeBureau()&lt;/div&gt;" style="verticalAlign=top;align=left;overflow=fill;html=1;whiteSpace=wrap;" vertex="1" parent="1">
          <mxGeometry x="330.5" y="690" width="189" height="60" as="geometry" />
        </mxCell>
        <mxCell id="lY7hRPInTB1ZuiQXHe0n-25" value="&lt;p style=&quot;margin:0px;margin-top:4px;text-align:center;&quot;&gt;&lt;b&gt;CommunityPolicingUnit&lt;/b&gt;&lt;/p&gt;&lt;hr size=&quot;1&quot; style=&quot;border-style:solid;&quot;&gt;&lt;div style=&quot;height:2px;&quot;&gt;+&amp;nbsp;CommunityPolicingUnit()&lt;/div&gt;" style="verticalAlign=top;align=left;overflow=fill;html=1;whiteSpace=wrap;" vertex="1" parent="1">
          <mxGeometry x="330.5" y="610" width="189" height="60" as="geometry" />
        </mxCell>
        <mxCell id="lY7hRPInTB1ZuiQXHe0n-26" value="&lt;p style=&quot;margin:0px;margin-top:4px;text-align:center;&quot;&gt;&lt;b&gt;CrimeInvestigationUnit&lt;/b&gt;&lt;/p&gt;&lt;hr size=&quot;1&quot; style=&quot;border-style:solid;&quot;&gt;&lt;div style=&quot;height:2px;&quot;&gt;+&amp;nbsp;CrimeInvestigationUnit()&lt;/div&gt;" style="verticalAlign=top;align=left;overflow=fill;html=1;whiteSpace=wrap;" vertex="1" parent="1">
          <mxGeometry x="330.5" y="520" width="189" height="60" as="geometry" />
        </mxCell>
        <mxCell id="lY7hRPInTB1ZuiQXHe0n-27" value="&lt;p style=&quot;margin:0px;margin-top:4px;text-align:center;&quot;&gt;&lt;b&gt;CyberCrimeUnit&lt;/b&gt;&lt;/p&gt;&lt;hr size=&quot;1&quot; style=&quot;border-style:solid;&quot;&gt;&lt;div style=&quot;height:2px;&quot;&gt;+&amp;nbsp;CyberCrimeUnit()&lt;/div&gt;" style="verticalAlign=top;align=left;overflow=fill;html=1;whiteSpace=wrap;" vertex="1" parent="1">
          <mxGeometry x="330.5" y="430" width="189" height="60" as="geometry" />
        </mxCell>
        <mxCell id="lY7hRPInTB1ZuiQXHe0n-49" value="" style="endArrow=block;endSize=16;endFill=0;html=1;rounded=0;entryX=0.551;entryY=1.042;entryDx=0;entryDy=0;entryPerimeter=0;exitX=0.462;exitY=-0.013;exitDx=0;exitDy=0;exitPerimeter=0;" edge="1" parent="1" source="lY7hRPInTB1ZuiQXHe0n-18" target="lY7hRPInTB1ZuiQXHe0n-8">
          <mxGeometry width="160" relative="1" as="geometry">
            <mxPoint x="197" y="440" as="sourcePoint" />
            <mxPoint x="193" y="410" as="targetPoint" />
          </mxGeometry>
        </mxCell>
        <mxCell id="lY7hRPInTB1ZuiQXHe0n-50" value="" style="endArrow=block;endSize=16;endFill=0;html=1;rounded=0;entryX=0.5;entryY=1;entryDx=0;entryDy=0;exitX=0.5;exitY=0;exitDx=0;exitDy=0;" edge="1" parent="1" source="lY7hRPInTB1ZuiQXHe0n-19" target="lY7hRPInTB1ZuiQXHe0n-18">
          <mxGeometry width="160" relative="1" as="geometry">
            <mxPoint x="205" y="460" as="sourcePoint" />
            <mxPoint x="207" y="421" as="targetPoint" />
          </mxGeometry>
        </mxCell>
        <mxCell id="lY7hRPInTB1ZuiQXHe0n-51" value="" style="endArrow=block;endSize=16;endFill=0;html=1;rounded=0;entryX=0.561;entryY=0.989;entryDx=0;entryDy=0;exitX=0.559;exitY=0;exitDx=0;exitDy=0;exitPerimeter=0;entryPerimeter=0;" edge="1" parent="1" source="lY7hRPInTB1ZuiQXHe0n-20" target="lY7hRPInTB1ZuiQXHe0n-19">
          <mxGeometry width="160" relative="1" as="geometry">
            <mxPoint x="215" y="540" as="sourcePoint" />
            <mxPoint x="215" y="520" as="targetPoint" />
          </mxGeometry>
        </mxCell>
        <mxCell id="lY7hRPInTB1ZuiQXHe0n-52" value="" style="endArrow=block;endSize=16;endFill=0;html=1;rounded=0;entryX=0.557;entryY=1.067;entryDx=0;entryDy=0;exitX=0.561;exitY=0.044;exitDx=0;exitDy=0;exitPerimeter=0;entryPerimeter=0;" edge="1" parent="1" source="lY7hRPInTB1ZuiQXHe0n-21" target="lY7hRPInTB1ZuiQXHe0n-20">
          <mxGeometry width="160" relative="1" as="geometry">
            <mxPoint x="225" y="550" as="sourcePoint" />
            <mxPoint x="225" y="530" as="targetPoint" />
          </mxGeometry>
        </mxCell>
        <mxCell id="lY7hRPInTB1ZuiQXHe0n-53" value="" style="endArrow=block;endSize=16;endFill=0;html=1;rounded=0;entryX=0.463;entryY=1;entryDx=0;entryDy=0;exitX=0.5;exitY=0;exitDx=0;exitDy=0;entryPerimeter=0;" edge="1" parent="1" source="lY7hRPInTB1ZuiQXHe0n-22" target="lY7hRPInTB1ZuiQXHe0n-21">
          <mxGeometry width="160" relative="1" as="geometry">
            <mxPoint x="235" y="560" as="sourcePoint" />
            <mxPoint x="235" y="540" as="targetPoint" />
          </mxGeometry>
        </mxCell>
        <mxCell id="lY7hRPInTB1ZuiQXHe0n-54" value="" style="endArrow=block;endSize=16;endFill=0;html=1;rounded=0;entryX=0.568;entryY=1;entryDx=0;entryDy=0;exitX=0.466;exitY=-0.022;exitDx=0;exitDy=0;entryPerimeter=0;exitPerimeter=0;" edge="1" parent="1" source="lY7hRPInTB1ZuiQXHe0n-27" target="lY7hRPInTB1ZuiQXHe0n-16">
          <mxGeometry width="160" relative="1" as="geometry">
            <mxPoint x="245" y="570" as="sourcePoint" />
            <mxPoint x="245" y="550" as="targetPoint" />
          </mxGeometry>
        </mxCell>
        <mxCell id="lY7hRPInTB1ZuiQXHe0n-55" value="" style="endArrow=block;endSize=16;endFill=0;html=1;rounded=0;entryX=0.5;entryY=1;entryDx=0;entryDy=0;exitX=0.5;exitY=0;exitDx=0;exitDy=0;" edge="1" parent="1" source="lY7hRPInTB1ZuiQXHe0n-26" target="lY7hRPInTB1ZuiQXHe0n-27">
          <mxGeometry width="160" relative="1" as="geometry">
            <mxPoint x="618" y="449" as="sourcePoint" />
            <mxPoint x="619" y="420" as="targetPoint" />
          </mxGeometry>
        </mxCell>
        <mxCell id="lY7hRPInTB1ZuiQXHe0n-56" value="" style="endArrow=block;endSize=16;endFill=0;html=1;rounded=0;entryX=0.575;entryY=0.994;entryDx=0;entryDy=0;exitX=0.578;exitY=-0.022;exitDx=0;exitDy=0;entryPerimeter=0;exitPerimeter=0;" edge="1" parent="1" source="lY7hRPInTB1ZuiQXHe0n-25" target="lY7hRPInTB1ZuiQXHe0n-26">
          <mxGeometry width="160" relative="1" as="geometry">
            <mxPoint x="628" y="459" as="sourcePoint" />
            <mxPoint x="629" y="430" as="targetPoint" />
          </mxGeometry>
        </mxCell>
        <mxCell id="lY7hRPInTB1ZuiQXHe0n-57" value="" style="endArrow=block;endSize=16;endFill=0;html=1;rounded=0;entryX=0.628;entryY=1.011;entryDx=0;entryDy=0;exitX=0.628;exitY=0.011;exitDx=0;exitDy=0;entryPerimeter=0;exitPerimeter=0;" edge="1" parent="1" source="lY7hRPInTB1ZuiQXHe0n-24" target="lY7hRPInTB1ZuiQXHe0n-25">
          <mxGeometry width="160" relative="1" as="geometry">
            <mxPoint x="638" y="469" as="sourcePoint" />
            <mxPoint x="639" y="440" as="targetPoint" />
          </mxGeometry>
        </mxCell>
        <mxCell id="lY7hRPInTB1ZuiQXHe0n-58" value="" style="endArrow=block;endSize=16;endFill=0;html=1;rounded=0;entryX=0.684;entryY=0.978;entryDx=0;entryDy=0;exitX=0.688;exitY=-0.033;exitDx=0;exitDy=0;entryPerimeter=0;exitPerimeter=0;" edge="1" parent="1" source="lY7hRPInTB1ZuiQXHe0n-23" target="lY7hRPInTB1ZuiQXHe0n-24">
          <mxGeometry width="160" relative="1" as="geometry">
            <mxPoint x="648" y="479" as="sourcePoint" />
            <mxPoint x="649" y="450" as="targetPoint" />
          </mxGeometry>
        </mxCell>
        <mxCell id="lY7hRPInTB1ZuiQXHe0n-59" value="MyArrayList&amp;lt;Garda&amp;gt;" style="swimlane;fontStyle=1;align=center;verticalAlign=top;childLayout=stackLayout;horizontal=1;startSize=26;horizontalStack=0;resizeParent=1;resizeParentMax=0;resizeLast=0;collapsible=1;marginBottom=0;whiteSpace=wrap;html=1;" vertex="1" parent="1">
          <mxGeometry x="180" y="-160" width="270" height="120" as="geometry" />
        </mxCell>
        <mxCell id="lY7hRPInTB1ZuiQXHe0n-60" value="MyArrayList&amp;lt;Garda&amp;gt;" style="text;strokeColor=none;fillColor=none;align=left;verticalAlign=top;spacingLeft=4;spacingRight=4;overflow=hidden;rotatable=0;points=[[0,0.5],[1,0.5]];portConstraint=eastwest;whiteSpace=wrap;html=1;" vertex="1" parent="lY7hRPInTB1ZuiQXHe0n-59">
          <mxGeometry y="26" width="270" height="26" as="geometry" />
        </mxCell>
        <mxCell id="lY7hRPInTB1ZuiQXHe0n-61" value="" style="line;strokeWidth=1;fillColor=none;align=left;verticalAlign=middle;spacingTop=-1;spacingLeft=3;spacingRight=3;rotatable=0;labelPosition=right;points=[];portConstraint=eastwest;strokeColor=inherit;" vertex="1" parent="lY7hRPInTB1ZuiQXHe0n-59">
          <mxGeometry y="52" width="270" height="8" as="geometry" />
        </mxCell>
        <mxCell id="lY7hRPInTB1ZuiQXHe0n-62" value="&lt;div&gt;+ bubbleRecursiveSort(): void&lt;/div&gt;&lt;div&gt;+ binarySearch_Recursive(String): Garda&lt;/div&gt;&lt;div&gt;&lt;br&gt;&lt;/div&gt;" style="text;strokeColor=none;fillColor=none;align=left;verticalAlign=top;spacingLeft=4;spacingRight=4;overflow=hidden;rotatable=0;points=[[0,0.5],[1,0.5]];portConstraint=eastwest;whiteSpace=wrap;html=1;" vertex="1" parent="lY7hRPInTB1ZuiQXHe0n-59">
          <mxGeometry y="60" width="270" height="60" as="geometry" />
        </mxCell>
        <mxCell id="lY7hRPInTB1ZuiQXHe0n-64" value="GardaStationSystem_CA2_455&amp;nbsp;" style="swimlane;fontStyle=1;align=center;verticalAlign=top;childLayout=stackLayout;horizontal=1;startSize=26;horizontalStack=0;resizeParent=1;resizeParentMax=0;resizeLast=0;collapsible=1;marginBottom=0;whiteSpace=wrap;html=1;" vertex="1" parent="1">
          <mxGeometry x="560" y="-160" width="300" height="280" as="geometry" />
        </mxCell>
        <mxCell id="lY7hRPInTB1ZuiQXHe0n-65" value="&amp;nbsp;- gardaList: MyArrayList&amp;lt;Garda&amp;gt;&lt;div&gt;&lt;div&gt;&amp;nbsp;- managerOptions: Manager[]&lt;/div&gt;&lt;div&gt;&lt;span style=&quot;background-color: transparent; color: light-dark(rgb(0, 0, 0), rgb(255, 255, 255));&quot;&gt;- departmentOptions: Department[]&lt;/span&gt;&lt;/div&gt;&lt;/div&gt;" style="text;strokeColor=none;fillColor=none;align=left;verticalAlign=top;spacingLeft=4;spacingRight=4;overflow=hidden;rotatable=0;points=[[0,0.5],[1,0.5]];portConstraint=eastwest;whiteSpace=wrap;html=1;" vertex="1" parent="lY7hRPInTB1ZuiQXHe0n-64">
          <mxGeometry y="26" width="300" height="64" as="geometry" />
        </mxCell>
        <mxCell id="lY7hRPInTB1ZuiQXHe0n-66" value="" style="line;strokeWidth=1;fillColor=none;align=left;verticalAlign=middle;spacingTop=-1;spacingLeft=3;spacingRight=3;rotatable=0;labelPosition=right;points=[];portConstraint=eastwest;strokeColor=inherit;" vertex="1" parent="lY7hRPInTB1ZuiQXHe0n-64">
          <mxGeometry y="90" width="300" height="8" as="geometry" />
        </mxCell>
        <mxCell id="lY7hRPInTB1ZuiQXHe0n-67" value="&lt;div&gt;+ main(args: String[]): void&amp;nbsp;&lt;/div&gt;&lt;div&gt;&lt;span style=&quot;background-color: transparent; color: light-dark(rgb(0, 0, 0), rgb(255, 255, 255));&quot;&gt;- readNamesFromFile(list: MyArrayList&amp;lt;Garda&amp;gt;): void|&lt;/span&gt;&lt;/div&gt;&lt;div&gt;&lt;span style=&quot;background-color: transparent; color: light-dark(rgb(0, 0, 0), rgb(255, 255, 255));&quot;&gt;- displayMenu(): void&amp;nbsp;&lt;/span&gt;&lt;/div&gt;&lt;div&gt;&lt;span style=&quot;background-color: transparent; color: light-dark(rgb(0, 0, 0), rgb(255, 255, 255));&quot;&gt;- sortGardaList(): void&lt;/span&gt;&lt;/div&gt;&lt;div&gt;- searchGarda(): void&lt;/div&gt;&lt;div&gt;- addGarda(): void&lt;/div&gt;&lt;div&gt;- generateRandomGarda(): void&amp;nbsp;&lt;/div&gt;&lt;div&gt;- displayAll(): void&amp;nbsp;&lt;/div&gt;&lt;div&gt;- displaySortedByRole(): void&lt;/div&gt;&lt;div&gt;- deleteGarda(): void&amp;nbsp;&lt;/div&gt;&lt;div&gt;- exportReport(): void&lt;br&gt;&lt;/div&gt;" style="text;strokeColor=none;fillColor=none;align=left;verticalAlign=top;spacingLeft=4;spacingRight=4;overflow=hidden;rotatable=0;points=[[0,0.5],[1,0.5]];portConstraint=eastwest;whiteSpace=wrap;html=1;" vertex="1" parent="lY7hRPInTB1ZuiQXHe0n-64">
          <mxGeometry y="98" width="300" height="182" as="geometry" />
        </mxCell>
        <mxCell id="lY7hRPInTB1ZuiQXHe0n-70" value="Use" style="endArrow=open;endSize=12;dashed=1;html=1;rounded=0;exitX=0.995;exitY=0.305;exitDx=0;exitDy=0;exitPerimeter=0;entryX=-0.003;entryY=0.817;entryDx=0;entryDy=0;entryPerimeter=0;" edge="1" parent="1" source="lY7hRPInTB1ZuiQXHe0n-62" target="lY7hRPInTB1ZuiQXHe0n-65">
          <mxGeometry width="160" relative="1" as="geometry">
            <mxPoint x="590" y="30" as="sourcePoint" />
            <mxPoint x="750" y="30" as="targetPoint" />
          </mxGeometry>
        </mxCell>
        <mxCell id="lY7hRPInTB1ZuiQXHe0n-71" value="Extends" style="endArrow=block;endSize=16;endFill=0;html=1;rounded=0;exitX=1;exitY=0.5;exitDx=0;exitDy=0;entryX=0;entryY=0.323;entryDx=0;entryDy=0;entryPerimeter=0;" edge="1" parent="1" source="lY7hRPInTB1ZuiQXHe0n-2" target="lY7hRPInTB1ZuiQXHe0n-67">
          <mxGeometry width="160" relative="1" as="geometry">
            <mxPoint x="590" y="30" as="sourcePoint" />
            <mxPoint x="750" y="30" as="targetPoint" />
            <Array as="points">
              <mxPoint x="510" y="90" />
              <mxPoint x="510" y="-3" />
            </Array>
          </mxGeometry>
        </mxCell>
        <mxCell id="lY7hRPInTB1ZuiQXHe0n-74" value="1" style="endArrow=open;html=1;endSize=12;startArrow=diamondThin;startSize=14;startFill=1;edgeStyle=orthogonalEdgeStyle;align=left;verticalAlign=bottom;rounded=0;exitX=0.5;exitY=0;exitDx=0;exitDy=0;entryX=0.309;entryY=0.987;entryDx=0;entryDy=0;entryPerimeter=0;" edge="1" parent="1" source="lY7hRPInTB1ZuiQXHe0n-5" target="lY7hRPInTB1ZuiQXHe0n-4">
          <mxGeometry x="-1" y="3" relative="1" as="geometry">
            <mxPoint x="470" y="210" as="sourcePoint" />
            <mxPoint x="630" y="210" as="targetPoint" />
            <Array as="points">
              <mxPoint x="145" y="230" />
              <mxPoint x="254" y="230" />
            </Array>
          </mxGeometry>
        </mxCell>
        <mxCell id="lY7hRPInTB1ZuiQXHe0n-75" value="1" style="endArrow=open;html=1;endSize=12;startArrow=diamondThin;startSize=14;startFill=1;edgeStyle=orthogonalEdgeStyle;align=left;verticalAlign=bottom;rounded=0;exitX=0.467;exitY=0.002;exitDx=0;exitDy=0;exitPerimeter=0;entryX=0.564;entryY=1.009;entryDx=0;entryDy=0;entryPerimeter=0;" edge="1" parent="1" source="lY7hRPInTB1ZuiQXHe0n-13" target="lY7hRPInTB1ZuiQXHe0n-4">
          <mxGeometry x="-1" y="3" relative="1" as="geometry">
            <mxPoint x="470" y="210" as="sourcePoint" />
            <mxPoint x="630" y="210" as="targetPoint" />
          </mxGeometry>
        </mxCell>
      </root>
    </mxGraphModel>
  </diagram>
</mxfile>
